<svg width="3351" height="527" viewBox="0 0 3351 527" fill="none" xmlns="http://www.w3.org/2000/svg">
<g clip-path="url(#clip0_197_59)">
<path d="M634.301 275.775H814.352L808.271 320.187H628.36L634.232 275.775H634.301ZM647.512 175.9H827.563L821.691 220.312H641.641L647.512 175.9ZM688.47 104.561H724.047L686.234 391.526H650.517L688.47 104.561V104.561ZM769.829 104.561H805.406L767.452 391.526H731.876L769.829 104.561V104.561Z" fill="white"/>
<path d="M1092.89 103.721V293.889C1092.75 311.304 1088.9 326.551 1081.21 339.56C1073.53 352.569 1062.69 362.57 1048.64 369.564C1034.59 376.558 1018.45 380.125 1000.27 380.125C983.43 380.125 968.472 377.118 955.332 371.173C942.192 365.228 931.777 356.206 924.089 344.246C916.4 332.286 912.626 317.599 912.626 300.254H969.101C969.241 307.318 970.779 313.402 973.715 318.508C976.65 323.614 980.634 327.6 985.597 330.258C990.559 332.916 996.431 334.315 1003.21 334.315C1010.34 334.315 1016.42 332.776 1021.45 329.698C1026.49 326.621 1030.26 322.075 1032.85 316.13C1035.43 310.185 1036.69 302.702 1036.69 293.819V103.721H1092.96H1092.89Z" fill="white"/>
<path d="M1150.34 141.139C1145.73 138.552 1142.09 135.125 1139.37 130.858C1136.64 126.592 1135.24 121.906 1135.24 116.73C1135.24 111.555 1136.64 106.869 1139.37 102.532C1142.09 98.1961 1145.8 94.769 1150.48 92.2511C1155.16 89.7333 1160.2 88.4744 1165.72 88.4744C1171.24 88.4744 1176.13 89.7333 1180.75 92.2511C1185.36 94.769 1189.06 98.1961 1191.86 102.532C1194.65 106.869 1195.98 111.625 1195.98 116.73C1195.98 121.836 1194.58 126.592 1191.86 130.858C1189.13 135.125 1185.43 138.552 1180.75 141.139C1176.06 143.727 1171.1 144.986 1165.72 144.986C1160.34 144.986 1154.95 143.727 1150.41 141.139H1150.34ZM1137.83 171.913H1193.54V376.418H1137.83V171.913Z" fill="white"/>
<path d="M1368 171.913H1423.35V376.418H1370.09V339.49H1367.86C1363.1 351.66 1355.34 361.311 1344.51 368.375C1333.68 375.439 1320.89 379.006 1305.93 379.006C1292.23 379.006 1280.21 375.929 1269.79 369.704C1259.38 363.48 1251.27 354.597 1245.54 342.987C1239.81 331.377 1236.87 317.739 1236.87 302.002V171.913H1292.58V292.42C1292.58 300.323 1294.05 307.248 1296.98 313.192C1299.92 319.137 1304.04 323.753 1309.42 326.971C1314.8 330.188 1321.03 331.797 1328.15 331.797C1335.21 331.936 1341.78 330.328 1347.94 326.971C1354.09 323.614 1358.98 318.788 1362.61 312.353C1366.25 305.919 1368.06 298.225 1368.06 289.203V171.913H1368Z" fill="white"/>
<path d="M1611.65 171.913V386.56C1611.65 402.017 1608.64 414.676 1602.63 424.467C1596.62 434.259 1587.96 441.533 1576.56 446.149C1565.17 450.765 1551.33 453.073 1534.91 453.213C1529.66 452.933 1525.82 452.863 1523.44 452.863V409.011C1526.45 409.29 1529.03 409.29 1531.13 409.22C1537 409.22 1541.82 408.381 1545.53 406.703C1549.23 405.024 1551.89 402.436 1553.43 399.009C1554.97 395.582 1555.87 391.176 1555.94 385.93V171.913H1611.65V171.913ZM1568.25 141.139C1563.63 138.552 1560 135.125 1557.27 130.858C1554.55 126.592 1553.15 121.906 1553.15 116.73C1553.15 111.555 1554.55 106.869 1557.27 102.532C1560 98.1961 1563.7 94.769 1568.39 92.2511C1573.07 89.7333 1578.1 88.4744 1583.62 88.4744C1589.14 88.4744 1594.04 89.7333 1598.65 92.2511C1603.26 94.769 1606.97 98.1961 1609.76 102.532C1612.56 106.869 1613.89 111.625 1613.89 116.73C1613.89 121.836 1612.49 126.592 1609.76 130.858C1607.04 135.125 1603.33 138.552 1598.65 141.139C1593.97 143.727 1589 144.986 1583.62 144.986C1578.24 144.986 1572.86 143.727 1568.32 141.139H1568.25Z" fill="white"/>
<path d="M1667.5 141.139C1662.88 138.552 1659.25 135.125 1656.52 130.858C1653.8 126.592 1652.4 121.906 1652.4 116.73C1652.4 111.555 1653.8 106.869 1656.52 102.532C1659.25 98.1961 1662.95 94.769 1667.64 92.2511C1672.32 89.7333 1677.35 88.4744 1682.87 88.4744C1688.4 88.4744 1693.29 89.7333 1697.9 92.2511C1702.52 94.769 1706.22 98.1961 1709.02 102.532C1711.81 106.869 1713.14 111.625 1713.14 116.73C1713.14 121.836 1711.74 126.592 1709.02 130.858C1706.29 135.125 1702.59 138.552 1697.9 141.139C1693.22 143.727 1688.26 144.986 1682.87 144.986C1677.49 144.986 1672.11 143.727 1667.57 141.139H1667.5ZM1654.99 171.913H1710.69V376.418H1654.99V171.913Z" fill="white"/>
<path d="M1861.6 213.737H1739.28V171.913H1861.6V213.737ZM1823.22 122.955V313.542C1823.22 318.788 1823.99 322.914 1825.6 325.852C1827.21 328.789 1829.38 330.887 1832.17 332.146C1834.97 333.405 1838.46 334.035 1842.59 334.035C1844.47 334.174 1846.78 334.174 1849.58 334.035L1857.82 333.685L1864.39 333.125V377.188C1855.87 378.587 1846.15 379.286 1835.25 379.286C1821.48 379.286 1809.46 377.188 1799.32 372.991C1789.19 368.795 1781.29 362.36 1775.7 353.758C1770.1 345.155 1767.31 334.314 1767.31 321.305V122.955H1823.22Z" fill="white"/>
<path d="M1999.71 215.416C1993.84 211.15 1986.22 208.981 1976.93 208.981C1970.91 208.981 1965.53 209.891 1960.71 211.639C1955.89 213.388 1952.18 215.836 1949.32 218.983C1946.45 222.13 1945.05 225.697 1945.05 229.684C1945.05 234.44 1947.15 238.566 1951.27 242.133C1955.4 245.7 1962.11 248.358 1971.4 250.246L2008.31 257.8C2028.02 261.926 2042.7 268.571 2052.41 277.663C2062.13 286.755 2067.09 298.575 2067.16 313.123C2067.02 326.411 2063.18 338.161 2055.7 348.233C2048.22 358.304 2037.59 366.207 2023.89 371.872C2010.2 377.538 1994.4 380.335 1976.51 380.335C1958.61 380.335 1942.61 377.747 1929.4 372.502C1916.19 367.256 1905.7 359.913 1898.08 350.261C1890.46 340.609 1885.85 329.209 1884.31 315.92H1940.23C1941.63 323.823 1945.4 329.838 1951.69 333.895C1957.98 337.951 1966.3 339.98 1976.72 339.84C1983.36 339.98 1989.23 339.21 1994.4 337.462C1999.57 335.713 2003.49 333.335 2006.28 330.118C2009.08 326.901 2010.41 323.194 2010.41 318.928C2010.41 313.682 2008.17 309.276 2003.7 305.849C1999.22 302.422 1992.23 299.694 1982.73 297.666L1948.83 290.882C1929.4 287.105 1914.65 280.321 1904.72 270.459C1894.8 260.597 1889.77 248.148 1889.77 233.111C1889.77 220.172 1893.26 208.912 1900.32 199.19C1907.38 189.468 1917.37 182.124 1930.3 176.949C1943.24 171.773 1958.54 169.255 1976.16 169.255C1993.77 169.255 2007.96 171.843 2020.68 176.949C2033.4 182.054 2043.33 189.468 2050.39 198.98C2057.44 208.492 2061.5 219.752 2062.55 232.691H2010.41C2009.15 225.417 2005.58 219.612 1999.71 215.346V215.416Z" fill="white"/>
<path d="M2232.67 171.913H2288.03V376.418H2234.77V339.49H2232.53C2227.78 351.66 2220.02 361.311 2209.19 368.375C2198.35 375.439 2185.56 379.006 2170.61 379.006C2156.91 379.006 2144.88 375.929 2134.47 369.704C2124.06 363.48 2115.95 354.597 2110.22 342.987C2104.48 331.377 2101.55 317.739 2101.55 302.002V171.913H2157.26V292.42C2157.26 300.323 2158.72 307.248 2161.66 313.192C2164.59 319.137 2168.72 323.753 2174.1 326.971C2179.48 330.188 2185.7 331.797 2192.83 331.797C2199.89 331.936 2206.46 330.328 2212.61 326.971C2218.76 323.614 2223.66 318.788 2227.29 312.353C2230.93 305.919 2232.74 298.225 2232.74 289.203V171.913H2232.67Z" fill="white"/>
<path d="M2478.42 376.418H2421.95V103.721H2478.42V376.418ZM2447.18 376.418V327.81H2515.47C2532.87 327.81 2547.48 324.663 2559.22 318.368C2570.97 312.073 2579.77 302.492 2585.64 289.553C2591.52 276.614 2594.52 260.038 2594.52 239.825C2594.52 219.612 2591.52 203.176 2585.57 190.237C2579.63 177.298 2570.83 167.647 2559.22 161.492C2547.62 155.337 2533.15 152.26 2515.82 152.26H2445.78V103.651H2518.61C2545.8 103.651 2569.43 109.037 2589.35 119.878C2609.27 130.648 2624.58 146.315 2635.2 166.877C2645.82 187.44 2651.07 211.709 2651.07 239.825C2651.07 267.941 2645.75 292.42 2635.06 312.913C2624.37 333.405 2609.06 349.072 2589.07 359.983C2569.08 370.893 2545.31 376.349 2517.85 376.349H2447.11L2447.18 376.418Z" fill="white"/>
<path d="M2703.42 141.139C2698.81 138.552 2695.17 135.125 2692.45 130.858C2689.72 126.592 2688.32 121.906 2688.32 116.73C2688.32 111.555 2689.72 106.869 2692.45 102.532C2695.17 98.1961 2698.88 94.769 2703.56 92.2511C2708.24 89.7333 2713.27 88.4744 2718.8 88.4744C2724.32 88.4744 2729.21 89.7333 2733.82 92.2511C2738.44 94.769 2742.14 98.1961 2744.94 102.532C2747.73 106.869 2749.06 111.625 2749.06 116.73C2749.06 121.836 2747.66 126.592 2744.94 130.858C2742.21 135.125 2738.51 138.552 2733.82 141.139C2729.21 143.727 2724.18 144.986 2718.8 144.986C2713.41 144.986 2708.03 143.727 2703.49 141.139H2703.42ZM2690.91 171.913H2746.61V376.418H2690.91V171.913Z" fill="white"/>
<path d="M2901.57 288.643C2899.48 288.783 2896.54 288.923 2892.63 289.203C2882.21 289.553 2873.05 290.182 2865.16 291.091C2855.23 291.861 2847.47 294.518 2841.95 299.065C2836.43 303.611 2833.49 309.835 2833.42 317.599C2833.42 322.634 2834.75 326.901 2837.41 330.468C2840.06 334.035 2843.63 336.762 2848.24 338.651C2852.85 340.539 2858.1 341.378 2864.11 341.308C2872.36 341.448 2879.83 339.84 2886.4 336.483C2892.97 333.125 2898.08 328.579 2901.71 322.704C2905.35 316.829 2907.16 310.395 2907.16 303.191L2906.81 237.097C2906.81 231.292 2905.63 226.397 2903.18 222.34C2900.73 218.284 2897.1 215.206 2892.21 213.108C2887.31 211.01 2881.44 210.031 2874.52 210.031C2865.02 210.031 2857.33 211.989 2851.46 215.975C2845.59 219.962 2841.95 225.487 2840.48 232.621H2787.43C2788.55 220.592 2792.74 209.751 2800.01 200.169C2807.28 190.587 2817.35 183.034 2830.21 177.508C2843.07 171.983 2858.31 169.255 2875.85 169.255C2891.65 169.255 2906.12 171.633 2919.12 176.389C2932.12 181.145 2942.67 188.769 2950.57 199.26C2958.47 209.751 2962.52 222.83 2962.59 238.496V376.349H2909.68V348.093H2908.14C2902.9 358.024 2895.28 365.857 2885.29 371.523C2875.29 377.188 2862.92 380.055 2848.1 380.055C2834.96 380.055 2823.29 377.747 2813.08 373.201C2802.95 368.585 2794.91 361.731 2788.97 352.569C2783.03 343.407 2780.09 332.286 2780.09 319.207C2780.09 298.015 2787.15 282.489 2801.2 272.767C2815.25 263.045 2833.56 257.45 2856.14 256.121C2862.29 255.632 2869 255.212 2876.2 254.932C2883.4 254.652 2890.32 254.303 2896.96 253.883L2909.4 253.533L2909.75 288.014C2906.39 288.294 2903.67 288.434 2901.57 288.573V288.643Z" fill="white"/>
<path d="M3004.6 171.913H3058.42V207.513H3060.65C3064.29 195.063 3070.51 185.552 3079.32 178.977C3088.12 172.403 3098.26 169.046 3109.79 168.906C3117.83 169.186 3123.77 169.815 3127.68 170.794V220.522C3124.96 219.612 3121.25 218.913 3116.78 218.354C3112.31 217.794 3107.9 217.514 3103.78 217.514C3095.53 217.514 3088.12 219.333 3081.55 222.97C3074.98 226.606 3069.88 231.642 3066.04 238.147C3062.19 244.651 3060.31 251.995 3060.31 260.248V376.419H3004.6V171.913V171.913Z" fill="white"/>
<path d="M3165.85 452.304V408.801C3170.25 409.151 3177.8 409.43 3188.42 409.57C3192.83 409.43 3196.53 409.011 3199.61 408.381C3202.68 407.752 3205.48 406.003 3208.06 403.276C3210.65 400.548 3212.96 396.421 3215.12 390.756L3218.48 382.294L3144.88 171.983H3203.59L3246.51 322.635H3248.74L3291.87 171.983H3350.93L3271.11 398.869C3264.96 416.424 3255.73 429.853 3243.43 439.155C3231.13 448.457 3214.63 453.143 3193.95 453.283C3180.04 453.003 3170.6 452.723 3165.71 452.374L3165.85 452.304Z" fill="white"/>
<path d="M526.663 527H0V0H526.663V527ZM16.9147 510.144H509.818V16.9255H16.9147V510.144Z" fill="#D8211C"/>
<path d="M170.056 140.44H97.5739V188.769H75.8364V123.864H148.318V86.2365H75.417V69.5907H170.056V140.44V140.44ZM145.033 180.866C159.711 179.956 174.529 178.208 189.486 175.62L191.653 192.266C176.276 194.854 161.109 196.602 146.151 197.581C131.194 198.561 113.37 199.05 92.6113 199.12H75.8364V181.915H92.6113C112.881 182.055 130.355 181.705 145.033 180.796V180.866ZM228.488 245.281H206.751V52.1755H228.488V245.281ZM261.898 144.567H223.526V127.501H261.898V144.567Z" fill="#D8211C" stroke="#D8211C" stroke-width="0.25" stroke-miterlimit="10"/>
<path d="M461.031 220.802H271.754V203.946H461.031V220.802ZM325.224 116.87C321.729 126.033 316.487 134.286 309.497 141.559C302.508 148.833 294.051 154.428 283.986 158.345L272.173 142.888C280.91 139.671 288.389 135.125 294.68 129.25C300.97 123.375 305.793 116.94 309.008 109.876C312.223 102.812 313.901 95.6785 313.971 88.5446V66.3735H330.466V88.5446C330.396 98.2663 328.579 107.778 325.084 116.94L325.224 116.87ZM339.203 139.041C332.074 131.488 327.181 124.983 323.756 115.821C320.331 106.659 318.654 97.5669 318.724 88.5446V66.3735H335.708V88.5446C335.638 94.9092 337.036 101.553 339.972 108.408C342.908 115.262 349.338 124.844 355.349 130.789L339.203 139.041ZM376.807 214.787H355.279V165.269H376.807V214.787ZM408.05 116.171C404.695 125.333 399.453 133.586 392.394 141.07C385.334 148.553 376.597 154.219 366.183 158.135L356.817 141.769C365.554 138.342 372.823 133.726 378.764 127.851C384.705 121.976 389.108 115.681 391.974 108.757C394.84 101.833 396.308 95.119 396.308 88.4746V66.3036H413.153V88.4746C413.083 97.7767 411.335 107.009 407.98 116.171H408.05ZM423.148 110.576C426.293 117.71 430.976 124.074 437.266 129.739C443.487 135.335 451.036 139.741 459.913 142.888L448.59 158.345C438.315 154.428 429.648 148.903 422.588 141.769C415.529 134.705 410.147 126.592 406.582 117.5C403.018 108.408 401.27 98.7559 401.34 88.4047V66.2336H418.534V88.4047C418.465 96.0282 420.002 103.372 423.148 110.506V110.576Z" fill="#D8211C" stroke="#D8211C" stroke-width="0.25" stroke-miterlimit="10"/>
<path d="M128.398 351.66C123.715 362.081 117.005 371.103 108.199 378.727C99.3918 386.42 88.9075 392.155 76.8155 396.002L65.7021 379.776C76.2564 376.488 85.4127 371.663 93.241 365.368C101.069 359.073 107.08 351.87 111.274 343.756C115.468 335.643 117.635 327.111 117.704 318.158V303.401H135.388V318.158C135.388 330.048 133.081 341.169 128.398 351.59V351.66ZM184.245 312.843H72.0626V296.267H184.245V312.843ZM199.762 406.982C210.106 409.78 218.004 413.837 223.526 419.222C228.978 424.607 231.704 431.042 231.704 438.595C231.704 446.149 228.978 452.584 223.526 457.969C218.074 463.354 210.106 467.551 199.762 470.418C189.417 473.286 177.116 474.755 162.927 474.755C148.738 474.755 136.297 473.286 125.882 470.418C115.468 467.551 107.43 463.354 101.838 457.969C96.2465 452.584 93.4507 446.079 93.4507 438.595C93.4507 431.112 96.2465 424.607 101.838 419.222C107.43 413.837 115.398 409.78 125.882 406.982C136.297 404.185 148.668 402.786 162.927 402.786C177.185 402.786 189.347 404.185 199.762 406.982V406.982ZM137.485 421.18C130.355 422.719 124.904 424.957 121.129 427.965C117.355 430.972 115.538 434.539 115.608 438.595C115.538 442.792 117.355 446.429 121.129 449.436C124.904 452.444 130.355 454.752 137.415 456.29C144.474 457.899 153.002 458.668 162.927 458.668C172.852 458.668 181.379 457.899 188.439 456.29C195.498 454.682 200.95 452.444 204.654 449.436C208.359 446.429 210.246 442.792 210.246 438.595C210.246 434.399 208.359 430.902 204.654 427.895C200.95 424.957 195.498 422.649 188.439 421.18C181.379 419.642 172.852 418.942 162.927 418.942C153.002 418.942 144.544 419.712 137.415 421.18H137.485ZM145.383 341.448C149.367 348.792 155.099 355.367 162.577 361.032C170.056 366.697 178.933 371.103 189.138 374.111L178.723 390.127C166.841 386.56 156.636 381.175 148.109 374.041C139.582 366.907 133.012 358.584 128.398 349.002C123.785 339.42 121.549 329.139 121.549 318.088V303.471H139.372V318.088C139.372 326.271 141.399 334.035 145.383 341.378V341.448ZM229.887 398.1H208.079V282.489H229.887V398.1ZM260.082 347.044H223.806V330.188H260.082V347.044V347.044Z" fill="#D8211C" stroke="#D8211C" stroke-width="0.25" stroke-miterlimit="10"/>
<path d="M359.194 301.792C367.581 305.849 374.221 311.514 379.044 318.788C383.867 326.062 386.243 334.245 386.243 343.407C386.243 352.569 383.867 360.892 379.044 368.166C374.221 375.439 367.651 381.105 359.194 385.231C350.806 389.288 341.44 391.386 331.096 391.386C320.751 391.386 311.455 389.358 303.068 385.231C294.68 381.175 288.11 375.439 283.217 368.166C278.325 360.892 275.948 352.639 275.948 343.407C275.948 334.175 278.395 326.062 283.217 318.788C288.04 311.514 294.68 305.919 303.068 301.792C311.455 297.736 320.751 295.638 331.096 295.638C341.44 295.638 350.806 297.666 359.194 301.792V301.792ZM313.832 317.249C308.729 319.767 304.675 323.264 301.74 327.81C298.804 332.356 297.406 337.532 297.476 343.407C297.406 349.352 298.804 354.597 301.74 359.143C304.675 363.689 308.659 367.186 313.832 369.704C318.934 372.222 324.735 373.481 331.096 373.481C337.456 373.481 343.118 372.222 348.22 369.704C353.323 367.186 357.307 363.689 360.242 359.143C363.178 354.597 364.646 349.352 364.646 343.407C364.646 337.462 363.178 332.356 360.242 327.81C357.307 323.264 353.323 319.767 348.22 317.249C343.118 314.731 337.456 313.472 331.096 313.472C324.735 313.472 318.934 314.731 313.832 317.249ZM330.047 460.487H308.1V408.451H330.047V460.487ZM449.639 471.258H308.1V454.402H449.639V471.258ZM443.418 422.649H421.61V282.629H443.418V422.649Z" fill="#D8211C" stroke="#D8211C" stroke-width="0.25" stroke-miterlimit="10"/>
</g>
<defs>
<clipPath id="clip0_197_59">
<rect width="3351" height="527" fill="white"/>
</clipPath>
</defs>
</svg>
